<svg width="109" height="43" viewBox="0 0 109 43" fill="none" xmlns="http://www.w3.org/2000/svg">
<path d="M64.9315 11.4284C62.1883 8.68519 58.9316 6.50909 55.3475 5.02449C51.7633 3.53989 47.9219 2.77579 44.0424 2.77579C40.1629 2.77579 36.3215 3.53989 32.7373 5.02449C29.1532 6.50909 25.8965 8.68519 23.1533 11.4284L44.0424 32.3174L64.9315 11.4284Z" fill="white"/>
<path d="M44.0686 32.3475C46.8118 35.0907 50.0684 37.2667 53.6526 38.7513C57.2367 40.2359 61.0782 41 64.9577 41C68.837 41 72.679 40.2359 76.263 38.7513C79.847 37.2667 83.104 35.0907 85.847 32.3475L64.9577 11.4584L44.0686 32.3475Z" fill="#880808"/>
<path d="M44.017 32.3429C41.2738 35.0861 38.0171 37.2621 34.433 38.7467C30.8488 40.2313 27.0074 40.9954 23.1279 40.9954C19.2484 40.9954 15.407 40.2313 11.8228 38.7467C8.23867 37.2621 4.98197 35.0861 2.23877 32.3429L23.1279 11.4538L44.017 32.3429Z" fill="#880808"/>
<path d="M64.9831 11.433C67.726 8.68979 70.983 6.51379 74.567 5.02919C78.151 3.54459 81.993 2.78049 85.872 2.78049C89.752 2.78049 93.593 3.54459 97.177 5.02919C100.761 6.51379 104.018 8.68979 106.761 11.433L85.872 32.3221L64.9831 11.433Z" fill="white"/>
</svg>
